<svg xmlns="http://www.w3.org/2000/svg" viewBox="0 0 64 64"><g id="Layer_23" data-name="Layer 23"><path d="M61,8H55.949a2.5,2.5,0,0,0-4.9,0h-2.1a2.5,2.5,0,0,0-4.9,0h-24.1a2.5,2.5,0,0,0-4.9,0h-2.1a2.5,2.5,0,0,0-4.9,0H3a3,3,0,0,0-3,3V55a3,3,0,0,0,3,3H61a3,3,0,0,0,3-3V11A3,3,0,0,0,61,8ZM5,52a3,3,0,0,1-3-3V18H62V39c0,2.552-2.637,4.126-5,4.724V23a1,1,0,0,0-1-1H8a1,1,0,0,0-1,1V47a1,1,0,0,0,1,1H53.414c-.75,2.049-2.219,4-4.414,4Zm42-6H41V40h6Zm-8,0H33V40h6Zm-8,0H25V40h6Zm-8,0H17V40h6Zm-8,0H9V40h6Zm2-22h6v6H17Zm8,0h6v6H25Zm8,0h6v6H33Zm8,0h6v6H41Zm8,0h6v6H49ZM9,32h6v6H9Zm8,0h6v6H17Zm8,0h6v6H25Zm8,0h6v6H33Zm8,0h6v6H41Zm8,0h6v6H49ZM15,30H9V24h6ZM49,40h6v4a1,1,0,0,0-1,1,7.252,7.252,0,0,1-.076,1H49Zm6.948,5.948a11.043,11.043,0,0,0,5.733-2.364,11.022,11.022,0,0,1-8.1,8.1A11.043,11.043,0,0,0,55.948,45.948ZM53,8.5a.5.5,0,0,1,1,0v3a.5.5,0,0,1-1,0Zm-7,0a.5.5,0,0,1,1,0v3a.5.5,0,0,1-1,0Zm-29,0a.5.5,0,0,1,1,0v3a.5.5,0,0,1-1,0Zm-7,0a.5.5,0,0,1,1,0v3a.5.5,0,0,1-1,0ZM2,11a1,1,0,0,1,1-1H8v1.5a2.5,2.5,0,0,0,5,0V10h2v1.5a2.5,2.5,0,0,0,5,0V10H44v1.5a2.5,2.5,0,0,0,5,0V10h2v1.5a2.5,2.5,0,0,0,5,0V10h5a1,1,0,0,1,1,1v5H2ZM62,55a1,1,0,0,1-1,1H3a1,1,0,0,1-1-1V52.974A4.948,4.948,0,0,0,5,54H51a12.993,12.993,0,0,0,11-6.1Z"/></g></svg>