<svg xmlns="http://www.w3.org/2000/svg" viewBox="0 0 64 64"><g id="Layer_8" data-name="Layer 8"><path d="M32.089,24.461,32,24.546l-.089-.085a8.978,8.978,0,0,0-12.336,0,8.248,8.248,0,0,0,0,11.974L31.307,47.721a1,1,0,0,0,1.386,0L44.425,36.435a8.248,8.248,0,0,0,0-11.974A8.978,8.978,0,0,0,32.089,24.461Zm10.95,10.533L32,45.612,20.961,34.994a6.25,6.25,0,0,1,0-9.092,6.961,6.961,0,0,1,9.563,0l.783.753a1,1,0,0,0,1.386,0l.783-.753a6.96,6.96,0,0,1,9.563,0,6.25,6.25,0,0,1,0,9.092Z"/><path d="M61,8H55.949a2.5,2.5,0,0,0-4.9,0h-2.1a2.5,2.5,0,0,0-4.9,0h-24.1a2.5,2.5,0,0,0-4.9,0h-2.1a2.5,2.5,0,0,0-4.9,0H3a3,3,0,0,0-3,3V55a3,3,0,0,0,3,3H61a3,3,0,0,0,3-3V11A3,3,0,0,0,61,8ZM5,52a3,3,0,0,1-3-3V18H62V39c0,3.329-4.488,5-7,5a1,1,0,0,0-1,1c0,2.512-1.671,7-5,7Zm50.948-6.052a11.043,11.043,0,0,0,5.733-2.364,11.022,11.022,0,0,1-8.1,8.1A11.043,11.043,0,0,0,55.948,45.948ZM53,8.5a.5.5,0,0,1,1,0v3a.5.5,0,0,1-1,0Zm-7,0a.5.5,0,0,1,1,0v3a.5.5,0,0,1-1,0Zm-29,0a.5.5,0,0,1,1,0v3a.5.5,0,0,1-1,0Zm-7,0a.5.5,0,0,1,1,0v3a.5.5,0,0,1-1,0ZM2,11a1,1,0,0,1,1-1H8v1.5a2.5,2.5,0,0,0,5,0V10h2v1.5a2.5,2.5,0,0,0,5,0V10H44v1.5a2.5,2.5,0,0,0,5,0V10h2v1.5a2.5,2.5,0,0,0,5,0V10h5a1,1,0,0,1,1,1v5H2ZM62,55a1,1,0,0,1-1,1H3a1,1,0,0,1-1-1V52.974A4.948,4.948,0,0,0,5,54H51a12.989,12.989,0,0,0,11-6.1Z"/></g></svg>