<svg xmlns="http://www.w3.org/2000/svg" viewBox="0 0 64 64"><g id="Layer_19" data-name="Layer 19"><path d="M32,20A15,15,0,1,0,47,35,15.017,15.017,0,0,0,32,20Zm1,27.949V47a1,1,0,0,0-2,0v.949A13,13,0,0,1,19.051,36H20a1,1,0,0,0,0-2h-.949A13,13,0,0,1,31,22.051V23a1,1,0,0,0,2,0v-.949A13,13,0,0,1,44.949,34H44a1,1,0,0,0,0,2h.949A13,13,0,0,1,33,47.949Z"/><path d="M33.293,28.707a1,1,0,0,0,1.414-1.414l-2-2a1,1,0,0,0-1.414,0l-2,2a1,1,0,0,0,1.414,1.414L31,28.414v3.77A3,3,0,0,0,29,35a2.957,2.957,0,0,0,.3,1.287l-.009.006L26,39.586V39a1,1,0,0,0-2,0v3a1,1,0,0,0,1,1h3a1,1,0,0,0,0-2h-.586l3.293-3.293.006-.009A2.957,2.957,0,0,0,32,38a2.993,2.993,0,0,0,1-5.816v-3.77ZM32,36a1,1,0,1,1,1-1A1,1,0,0,1,32,36Z"/><path d="M61,8H55.949a2.5,2.5,0,0,0-4.9,0h-2.1a2.5,2.5,0,0,0-4.9,0h-24.1a2.5,2.5,0,0,0-4.9,0h-2.1a2.5,2.5,0,0,0-4.9,0H3a3,3,0,0,0-3,3V55a3,3,0,0,0,3,3H61a3,3,0,0,0,3-3V11A3,3,0,0,0,61,8ZM5,52a3,3,0,0,1-3-3V18H62V39c0,3.329-4.487,5-7,5a1,1,0,0,0-1,1c0,2.513-1.671,7-5,7Zm50.948-6.052a11.043,11.043,0,0,0,5.733-2.364,11.022,11.022,0,0,1-8.1,8.1A11.043,11.043,0,0,0,55.948,45.948ZM53,8.5a.5.5,0,0,1,1,0v3a.5.5,0,0,1-1,0Zm-7,0a.5.5,0,0,1,1,0v3a.5.5,0,0,1-1,0Zm-29,0a.5.5,0,0,1,1,0v3a.5.5,0,0,1-1,0Zm-7,0a.5.5,0,0,1,1,0v3a.5.5,0,0,1-1,0ZM2,11a1,1,0,0,1,1-1H8v1.5a2.5,2.5,0,0,0,5,0V10h2v1.5a2.5,2.5,0,0,0,5,0V10H44v1.5a2.5,2.5,0,0,0,5,0V10h2v1.5a2.5,2.5,0,0,0,5,0V10h5a1,1,0,0,1,1,1v5H2ZM62,55a1,1,0,0,1-1,1H3a1,1,0,0,1-1-1V52.974A4.948,4.948,0,0,0,5,54H51a12.993,12.993,0,0,0,11-6.1Z"/></g></svg>